<mxfile host="app.diagrams.net" modified="2022-04-02T16:01:39.253Z" agent="5.0 (Windows NT 10.0; Win64; x64) AppleWebKit/537.36 (KHTML, like Gecko) Chrome/100.0.4896.60 Safari/537.36" etag="3Mm3W0Q7qIjiWWzEhpjV" version="17.2.3" type="github" pages="4">
  <diagram id="oPo78k8iADCFWiPRZ-2d" name="Tugas 3 Basis Data">
    <mxGraphModel dx="868" dy="482" grid="1" gridSize="10" guides="1" tooltips="1" connect="1" arrows="1" fold="1" page="1" pageScale="1" pageWidth="827" pageHeight="1169" math="0" shadow="0">
      <root>
        <mxCell id="0" />
        <mxCell id="1" parent="0" />
        <mxCell id="YERH8N1KUw3pZ7mbSFHl-14" style="edgeStyle=orthogonalEdgeStyle;rounded=0;orthogonalLoop=1;jettySize=auto;html=1;entryX=1;entryY=0.5;entryDx=0;entryDy=0;endArrow=ERmany;endFill=0;" parent="1" source="YERH8N1KUw3pZ7mbSFHl-2" target="YERH8N1KUw3pZ7mbSFHl-7" edge="1">
          <mxGeometry relative="1" as="geometry" />
        </mxCell>
        <mxCell id="YERH8N1KUw3pZ7mbSFHl-2" value="Produk" style="swimlane;childLayout=stackLayout;horizontal=1;startSize=30;horizontalStack=0;rounded=1;fontSize=14;fontStyle=0;strokeWidth=2;resizeParent=0;resizeLast=1;shadow=0;dashed=0;align=center;" parent="1" vertex="1">
          <mxGeometry x="585" y="110" width="165" height="100" as="geometry" />
        </mxCell>
        <mxCell id="YERH8N1KUw3pZ7mbSFHl-3" value="# id_produk&#xa;* nama_produk" style="align=left;strokeColor=none;fillColor=none;spacingLeft=4;fontSize=12;verticalAlign=top;resizable=0;rotatable=0;part=1;" parent="YERH8N1KUw3pZ7mbSFHl-2" vertex="1">
          <mxGeometry y="30" width="165" height="70" as="geometry" />
        </mxCell>
        <mxCell id="YERH8N1KUw3pZ7mbSFHl-4" value="Kategori_produk" style="swimlane;childLayout=stackLayout;horizontal=1;startSize=30;horizontalStack=0;rounded=1;fontSize=14;fontStyle=0;strokeWidth=2;resizeParent=0;resizeLast=1;shadow=0;dashed=0;align=center;" parent="1" vertex="1">
          <mxGeometry x="140" y="190" width="150" height="100" as="geometry" />
        </mxCell>
        <mxCell id="YERH8N1KUw3pZ7mbSFHl-5" value="# id_kategori&#xa;* nama_kategori" style="align=left;strokeColor=none;fillColor=none;spacingLeft=4;fontSize=12;verticalAlign=top;resizable=0;rotatable=0;part=1;" parent="YERH8N1KUw3pZ7mbSFHl-4" vertex="1">
          <mxGeometry y="30" width="150" height="70" as="geometry" />
        </mxCell>
        <mxCell id="YERH8N1KUw3pZ7mbSFHl-6" value="Toko_retail" style="swimlane;childLayout=stackLayout;horizontal=1;startSize=30;horizontalStack=0;rounded=1;fontSize=14;fontStyle=0;strokeWidth=2;resizeParent=0;resizeLast=1;shadow=0;dashed=0;align=center;" parent="1" vertex="1">
          <mxGeometry x="350" y="10" width="160" height="120" as="geometry" />
        </mxCell>
        <mxCell id="YERH8N1KUw3pZ7mbSFHl-7" value="# id_retail&#xa;* kategori_id&#xa;* produk_id&#xa;* nama_produk&#xa;* detail_id" style="align=left;strokeColor=none;fillColor=none;spacingLeft=4;fontSize=12;verticalAlign=top;resizable=0;rotatable=0;part=1;" parent="YERH8N1KUw3pZ7mbSFHl-6" vertex="1">
          <mxGeometry y="30" width="160" height="90" as="geometry" />
        </mxCell>
        <mxCell id="YERH8N1KUw3pZ7mbSFHl-19" style="edgeStyle=orthogonalEdgeStyle;rounded=0;orthogonalLoop=1;jettySize=auto;html=1;entryX=0.5;entryY=1;entryDx=0;entryDy=0;endArrow=classicThin;endFill=0;" parent="1" source="YERH8N1KUw3pZ7mbSFHl-10" target="YERH8N1KUw3pZ7mbSFHl-3" edge="1">
          <mxGeometry relative="1" as="geometry" />
        </mxCell>
        <mxCell id="YERH8N1KUw3pZ7mbSFHl-10" value="Detail_produk" style="swimlane;childLayout=stackLayout;horizontal=1;startSize=30;horizontalStack=0;rounded=1;fontSize=14;fontStyle=0;strokeWidth=2;resizeParent=0;resizeLast=1;shadow=0;dashed=0;align=center;" parent="1" vertex="1">
          <mxGeometry x="587.5" y="280" width="160" height="140" as="geometry" />
        </mxCell>
        <mxCell id="YERH8N1KUw3pZ7mbSFHl-11" value="# id_detail&#xa;* barcode&#xa;* nama_produk&#xa;* netto&#xa;* harga" style="align=left;strokeColor=none;fillColor=none;spacingLeft=4;fontSize=12;verticalAlign=top;resizable=0;rotatable=0;part=1;" parent="YERH8N1KUw3pZ7mbSFHl-10" vertex="1">
          <mxGeometry y="30" width="160" height="110" as="geometry" />
        </mxCell>
        <mxCell id="YERH8N1KUw3pZ7mbSFHl-13" style="edgeStyle=orthogonalEdgeStyle;rounded=0;orthogonalLoop=1;jettySize=auto;html=1;entryX=0;entryY=0.5;entryDx=0;entryDy=0;endArrow=ERmany;endFill=0;" parent="1" source="YERH8N1KUw3pZ7mbSFHl-5" target="YERH8N1KUw3pZ7mbSFHl-7" edge="1">
          <mxGeometry relative="1" as="geometry" />
        </mxCell>
      </root>
    </mxGraphModel>
  </diagram>
  <diagram id="Fg1hGmsUx8QQ1TKMo9zs" name="Tugas-04-Basdat">
    <mxGraphModel dx="868" dy="1651" grid="1" gridSize="10" guides="1" tooltips="1" connect="0" arrows="1" fold="1" page="1" pageScale="1" pageWidth="827" pageHeight="1169" math="0" shadow="0">
      <root>
        <mxCell id="1BU1NO5aNp6Bns47JUfh-0" />
        <mxCell id="1BU1NO5aNp6Bns47JUfh-1" parent="1BU1NO5aNp6Bns47JUfh-0" />
        <mxCell id="1BU1NO5aNp6Bns47JUfh-2" style="edgeStyle=orthogonalEdgeStyle;rounded=0;orthogonalLoop=1;jettySize=auto;html=1;entryX=1;entryY=0.5;entryDx=0;entryDy=0;endArrow=ERmany;endFill=0;" parent="1BU1NO5aNp6Bns47JUfh-1" source="1BU1NO5aNp6Bns47JUfh-3" target="1BU1NO5aNp6Bns47JUfh-8" edge="1">
          <mxGeometry relative="1" as="geometry" />
        </mxCell>
        <mxCell id="1BU1NO5aNp6Bns47JUfh-3" value="Produk" style="swimlane;childLayout=stackLayout;horizontal=1;startSize=30;horizontalStack=0;rounded=1;fontSize=14;fontStyle=0;strokeWidth=2;resizeParent=0;resizeLast=1;shadow=0;dashed=0;align=center;" parent="1BU1NO5aNp6Bns47JUfh-1" vertex="1">
          <mxGeometry x="571" y="210" width="150" height="100" as="geometry" />
        </mxCell>
        <mxCell id="1BU1NO5aNp6Bns47JUfh-4" value="# id_produk&#xa;* nama_produk" style="align=left;strokeColor=none;fillColor=none;spacingLeft=4;fontSize=12;verticalAlign=top;resizable=0;rotatable=0;part=1;" parent="1BU1NO5aNp6Bns47JUfh-3" vertex="1">
          <mxGeometry y="30" width="150" height="70" as="geometry" />
        </mxCell>
        <mxCell id="1BU1NO5aNp6Bns47JUfh-5" value="Kategori_produk" style="swimlane;childLayout=stackLayout;horizontal=1;startSize=30;horizontalStack=0;rounded=1;fontSize=14;fontStyle=0;strokeWidth=2;resizeParent=0;resizeLast=1;shadow=0;dashed=0;align=center;" parent="1BU1NO5aNp6Bns47JUfh-1" vertex="1">
          <mxGeometry x="101" y="270" width="150" height="100" as="geometry" />
        </mxCell>
        <mxCell id="1BU1NO5aNp6Bns47JUfh-6" value="# id_kategori&#xa;* nama_kategori" style="align=left;strokeColor=none;fillColor=none;spacingLeft=4;fontSize=12;verticalAlign=top;resizable=0;rotatable=0;part=1;" parent="1BU1NO5aNp6Bns47JUfh-5" vertex="1">
          <mxGeometry y="30" width="150" height="70" as="geometry" />
        </mxCell>
        <mxCell id="1BU1NO5aNp6Bns47JUfh-7" value="Toko_retail" style="swimlane;childLayout=stackLayout;horizontal=1;startSize=30;horizontalStack=0;rounded=1;fontSize=14;fontStyle=0;strokeWidth=2;resizeParent=0;resizeLast=1;shadow=0;dashed=0;align=center;" parent="1BU1NO5aNp6Bns47JUfh-1" vertex="1">
          <mxGeometry x="331" y="130" width="160" height="130" as="geometry" />
        </mxCell>
        <mxCell id="1BU1NO5aNp6Bns47JUfh-8" value="# id_retail&#xa;* kategori_id&#xa;* produk_id&#xa;* nama_produk&#xa;* detail_id&#xa;* pemasok_id&#xa;" style="align=left;strokeColor=none;fillColor=none;spacingLeft=4;fontSize=12;verticalAlign=top;resizable=0;rotatable=0;part=1;" parent="1BU1NO5aNp6Bns47JUfh-7" vertex="1">
          <mxGeometry y="30" width="160" height="100" as="geometry" />
        </mxCell>
        <mxCell id="1BU1NO5aNp6Bns47JUfh-9" style="edgeStyle=orthogonalEdgeStyle;rounded=0;orthogonalLoop=1;jettySize=auto;html=1;entryX=0.5;entryY=1;entryDx=0;entryDy=0;endArrow=classicThin;endFill=0;" parent="1BU1NO5aNp6Bns47JUfh-1" source="1BU1NO5aNp6Bns47JUfh-10" target="1BU1NO5aNp6Bns47JUfh-4" edge="1">
          <mxGeometry relative="1" as="geometry" />
        </mxCell>
        <mxCell id="1BU1NO5aNp6Bns47JUfh-10" value="Detail_produk" style="swimlane;childLayout=stackLayout;horizontal=1;startSize=30;horizontalStack=0;rounded=1;fontSize=14;fontStyle=0;strokeWidth=2;resizeParent=0;resizeLast=1;shadow=0;dashed=0;align=center;" parent="1BU1NO5aNp6Bns47JUfh-1" vertex="1">
          <mxGeometry x="566" y="400" width="160" height="140" as="geometry" />
        </mxCell>
        <mxCell id="1BU1NO5aNp6Bns47JUfh-11" value="# id_detail&#xa;* barcode&#xa;* nama_produk&#xa;* netto&#xa;* harga" style="align=left;strokeColor=none;fillColor=none;spacingLeft=4;fontSize=12;verticalAlign=top;resizable=0;rotatable=0;part=1;" parent="1BU1NO5aNp6Bns47JUfh-10" vertex="1">
          <mxGeometry y="30" width="160" height="110" as="geometry" />
        </mxCell>
        <mxCell id="1BU1NO5aNp6Bns47JUfh-12" style="edgeStyle=orthogonalEdgeStyle;rounded=0;orthogonalLoop=1;jettySize=auto;html=1;entryX=0;entryY=0.5;entryDx=0;entryDy=0;endArrow=ERmany;endFill=0;" parent="1BU1NO5aNp6Bns47JUfh-1" source="1BU1NO5aNp6Bns47JUfh-6" target="1BU1NO5aNp6Bns47JUfh-8" edge="1">
          <mxGeometry relative="1" as="geometry" />
        </mxCell>
        <mxCell id="1BU1NO5aNp6Bns47JUfh-13" value="Pemasok" style="swimlane;childLayout=stackLayout;horizontal=1;startSize=30;horizontalStack=0;rounded=1;fontSize=14;fontStyle=0;strokeWidth=2;resizeParent=0;resizeLast=1;shadow=0;dashed=0;align=center;" parent="1BU1NO5aNp6Bns47JUfh-1" vertex="1">
          <mxGeometry x="334" y="-90" width="160" height="120" as="geometry" />
        </mxCell>
        <mxCell id="1BU1NO5aNp6Bns47JUfh-14" value="# id_pemasok&#xa;* nama_pemasok&#xa;* alamat_pemasok&#xa;* nomor_telepon&#xa;* NPWP" style="align=left;strokeColor=none;fillColor=none;spacingLeft=4;fontSize=12;verticalAlign=top;resizable=0;rotatable=0;part=1;" parent="1BU1NO5aNp6Bns47JUfh-13" vertex="1">
          <mxGeometry y="30" width="160" height="90" as="geometry" />
        </mxCell>
        <mxCell id="1BU1NO5aNp6Bns47JUfh-16" value="" style="endArrow=classic;startArrow=classic;html=1;rounded=0;entryX=0.488;entryY=1.011;entryDx=0;entryDy=0;entryPerimeter=0;exitX=0.513;exitY=0;exitDx=0;exitDy=0;exitPerimeter=0;" parent="1BU1NO5aNp6Bns47JUfh-1" source="1BU1NO5aNp6Bns47JUfh-7" target="1BU1NO5aNp6Bns47JUfh-14" edge="1">
          <mxGeometry width="50" height="50" relative="1" as="geometry">
            <mxPoint x="412" y="120" as="sourcePoint" />
            <mxPoint x="410" y="30" as="targetPoint" />
          </mxGeometry>
        </mxCell>
      </root>
    </mxGraphModel>
  </diagram>
  <diagram id="Eb-_ZoXfEh-Tl3VtfmHW" name="Tugas-5-Basdat">
    <mxGraphModel dx="868" dy="1651" grid="1" gridSize="10" guides="1" tooltips="1" connect="1" arrows="1" fold="1" page="1" pageScale="1" pageWidth="827" pageHeight="1169" math="0" shadow="0">
      <root>
        <mxCell id="0" />
        <mxCell id="1" parent="0" />
        <mxCell id="YqVu-KspWsc6omPKhccF-1" style="edgeStyle=orthogonalEdgeStyle;rounded=0;orthogonalLoop=1;jettySize=auto;html=1;entryX=1;entryY=0.5;entryDx=0;entryDy=0;endArrow=ERmany;endFill=0;" edge="1" parent="1" source="YqVu-KspWsc6omPKhccF-2" target="YqVu-KspWsc6omPKhccF-7">
          <mxGeometry relative="1" as="geometry" />
        </mxCell>
        <mxCell id="YqVu-KspWsc6omPKhccF-2" value="Produk" style="swimlane;childLayout=stackLayout;horizontal=1;startSize=30;horizontalStack=0;rounded=1;fontSize=14;fontStyle=0;strokeWidth=2;resizeParent=0;resizeLast=1;shadow=0;dashed=0;align=center;" vertex="1" parent="1">
          <mxGeometry x="600" y="260" width="150" height="100" as="geometry" />
        </mxCell>
        <mxCell id="YqVu-KspWsc6omPKhccF-3" value="# id_produk&#xa;* nama_produk" style="align=left;strokeColor=none;fillColor=none;spacingLeft=4;fontSize=12;verticalAlign=top;resizable=0;rotatable=0;part=1;" vertex="1" parent="YqVu-KspWsc6omPKhccF-2">
          <mxGeometry y="30" width="150" height="70" as="geometry" />
        </mxCell>
        <mxCell id="YqVu-KspWsc6omPKhccF-40" style="edgeStyle=orthogonalEdgeStyle;rounded=0;orthogonalLoop=1;jettySize=auto;html=1;startArrow=ERmandOne;startFill=0;endArrow=ERoneToMany;endFill=0;" edge="1" parent="1" source="YqVu-KspWsc6omPKhccF-4" target="YqVu-KspWsc6omPKhccF-7">
          <mxGeometry relative="1" as="geometry" />
        </mxCell>
        <mxCell id="YqVu-KspWsc6omPKhccF-4" value="Kategori_produk" style="swimlane;childLayout=stackLayout;horizontal=1;startSize=30;horizontalStack=0;rounded=1;fontSize=14;fontStyle=0;strokeWidth=2;resizeParent=0;resizeLast=1;shadow=0;dashed=0;align=center;" vertex="1" parent="1">
          <mxGeometry x="70" y="280" width="150" height="100" as="geometry" />
        </mxCell>
        <mxCell id="YqVu-KspWsc6omPKhccF-5" value="# id_kategori&#xa;* nama_kategori" style="align=left;strokeColor=none;fillColor=none;spacingLeft=4;fontSize=12;verticalAlign=top;resizable=0;rotatable=0;part=1;" vertex="1" parent="YqVu-KspWsc6omPKhccF-4">
          <mxGeometry y="30" width="150" height="70" as="geometry" />
        </mxCell>
        <mxCell id="jG4PBK-Dn9zjZ0DRbs_l-3" style="edgeStyle=orthogonalEdgeStyle;rounded=0;orthogonalLoop=1;jettySize=auto;html=1;startArrow=ERmandOne;startFill=0;endArrow=ERoneToMany;endFill=0;entryX=0.5;entryY=1;entryDx=0;entryDy=0;" edge="1" parent="1" source="YqVu-KspWsc6omPKhccF-6" target="jG4PBK-Dn9zjZ0DRbs_l-2">
          <mxGeometry relative="1" as="geometry">
            <mxPoint x="420" y="150" as="targetPoint" />
          </mxGeometry>
        </mxCell>
        <mxCell id="YqVu-KspWsc6omPKhccF-6" value="Toko_retail" style="swimlane;childLayout=stackLayout;horizontal=1;startSize=30;horizontalStack=0;rounded=1;fontSize=14;fontStyle=0;strokeWidth=2;resizeParent=0;resizeLast=1;shadow=0;dashed=0;align=center;" vertex="1" parent="1">
          <mxGeometry x="330" y="190" width="160" height="160" as="geometry" />
        </mxCell>
        <mxCell id="YqVu-KspWsc6omPKhccF-7" value="# id_retail&#xa;* kategori_id&#xa;* produk_id&#xa;* nama_produk&#xa;* detail_id&#xa;&#xa;" style="align=left;strokeColor=none;fillColor=none;spacingLeft=4;fontSize=12;verticalAlign=top;resizable=0;rotatable=0;part=1;" vertex="1" parent="YqVu-KspWsc6omPKhccF-6">
          <mxGeometry y="30" width="160" height="130" as="geometry" />
        </mxCell>
        <mxCell id="YqVu-KspWsc6omPKhccF-8" style="edgeStyle=orthogonalEdgeStyle;rounded=0;orthogonalLoop=1;jettySize=auto;html=1;entryX=0.5;entryY=1;entryDx=0;entryDy=0;endArrow=classicThin;endFill=0;" edge="1" parent="1" source="YqVu-KspWsc6omPKhccF-9" target="YqVu-KspWsc6omPKhccF-3">
          <mxGeometry relative="1" as="geometry" />
        </mxCell>
        <mxCell id="YqVu-KspWsc6omPKhccF-9" value="Detail_produk" style="swimlane;childLayout=stackLayout;horizontal=1;startSize=30;horizontalStack=0;rounded=1;fontSize=14;fontStyle=0;strokeWidth=2;resizeParent=0;resizeLast=1;shadow=0;dashed=0;align=center;" vertex="1" parent="1">
          <mxGeometry x="595" y="430" width="160" height="140" as="geometry" />
        </mxCell>
        <mxCell id="YqVu-KspWsc6omPKhccF-10" value="# id_detail&#xa;* barcode&#xa;* nama_produk&#xa;* netto&#xa;* harga" style="align=left;strokeColor=none;fillColor=none;spacingLeft=4;fontSize=12;verticalAlign=top;resizable=0;rotatable=0;part=1;" vertex="1" parent="YqVu-KspWsc6omPKhccF-9">
          <mxGeometry y="30" width="160" height="110" as="geometry" />
        </mxCell>
        <mxCell id="YqVu-KspWsc6omPKhccF-15" value="Type_toko" style="swimlane;childLayout=stackLayout;horizontal=1;startSize=30;horizontalStack=0;rounded=1;fontSize=14;fontStyle=0;strokeWidth=2;resizeParent=0;resizeLast=1;shadow=0;dashed=0;align=center;" vertex="1" parent="1">
          <mxGeometry x="550" y="-140" width="160" height="120" as="geometry" />
        </mxCell>
        <mxCell id="YqVu-KspWsc6omPKhccF-16" value="# id_type&#xa;* nama" style="align=left;strokeColor=none;fillColor=none;spacingLeft=4;fontSize=12;verticalAlign=top;resizable=0;rotatable=0;part=1;" vertex="1" parent="YqVu-KspWsc6omPKhccF-15">
          <mxGeometry y="30" width="160" height="90" as="geometry" />
        </mxCell>
        <mxCell id="YqVu-KspWsc6omPKhccF-21" style="edgeStyle=orthogonalEdgeStyle;rounded=0;orthogonalLoop=1;jettySize=auto;html=1;startArrow=ERmandOne;startFill=0;endArrow=ERmandOne;endFill=0;entryX=0.594;entryY=-0.008;entryDx=0;entryDy=0;entryPerimeter=0;" edge="1" parent="1" source="YqVu-KspWsc6omPKhccF-16" target="jG4PBK-Dn9zjZ0DRbs_l-1">
          <mxGeometry relative="1" as="geometry">
            <mxPoint x="450" as="targetPoint" />
          </mxGeometry>
        </mxCell>
        <mxCell id="YqVu-KspWsc6omPKhccF-27" style="edgeStyle=orthogonalEdgeStyle;rounded=0;orthogonalLoop=1;jettySize=auto;html=1;startArrow=ERmandOne;startFill=0;endArrow=ERmandOne;endFill=0;entryX=0.381;entryY=0.017;entryDx=0;entryDy=0;entryPerimeter=0;" edge="1" parent="1" source="YqVu-KspWsc6omPKhccF-22" target="jG4PBK-Dn9zjZ0DRbs_l-1">
          <mxGeometry relative="1" as="geometry">
            <mxPoint x="391" as="targetPoint" />
          </mxGeometry>
        </mxCell>
        <mxCell id="YqVu-KspWsc6omPKhccF-35" style="edgeStyle=orthogonalEdgeStyle;rounded=0;orthogonalLoop=1;jettySize=auto;html=1;entryX=1.019;entryY=0.333;entryDx=0;entryDy=0;entryPerimeter=0;startArrow=ERmandOne;startFill=0;endArrow=ERoneToMany;endFill=0;" edge="1" parent="1" source="YqVu-KspWsc6omPKhccF-22" target="YqVu-KspWsc6omPKhccF-29">
          <mxGeometry relative="1" as="geometry" />
        </mxCell>
        <mxCell id="YqVu-KspWsc6omPKhccF-22" value="Provinsi" style="swimlane;childLayout=stackLayout;horizontal=1;startSize=30;horizontalStack=0;rounded=1;fontSize=14;fontStyle=0;strokeWidth=2;resizeParent=0;resizeLast=1;shadow=0;dashed=0;align=center;" vertex="1" parent="1">
          <mxGeometry x="310" y="-250" width="161" height="120" as="geometry" />
        </mxCell>
        <mxCell id="YqVu-KspWsc6omPKhccF-23" value="# id_provinsi&#xa;* nama" style="align=left;strokeColor=none;fillColor=none;spacingLeft=4;fontSize=12;verticalAlign=top;resizable=0;rotatable=0;part=1;" vertex="1" parent="YqVu-KspWsc6omPKhccF-22">
          <mxGeometry y="30" width="161" height="90" as="geometry" />
        </mxCell>
        <mxCell id="YqVu-KspWsc6omPKhccF-28" value="Kota" style="swimlane;childLayout=stackLayout;horizontal=1;startSize=30;horizontalStack=0;rounded=1;fontSize=14;fontStyle=0;strokeWidth=2;resizeParent=0;resizeLast=1;shadow=0;dashed=0;align=center;" vertex="1" parent="1">
          <mxGeometry x="70" y="-250" width="160" height="120" as="geometry" />
        </mxCell>
        <mxCell id="YqVu-KspWsc6omPKhccF-29" value="# id_,kota&#xa;* provinsi_id&#xa;* nama" style="align=left;strokeColor=none;fillColor=none;spacingLeft=4;fontSize=12;verticalAlign=top;resizable=0;rotatable=0;part=1;" vertex="1" parent="YqVu-KspWsc6omPKhccF-28">
          <mxGeometry y="30" width="160" height="90" as="geometry" />
        </mxCell>
        <mxCell id="YqVu-KspWsc6omPKhccF-30" value="Daerah" style="swimlane;childLayout=stackLayout;horizontal=1;startSize=30;horizontalStack=0;rounded=1;fontSize=14;fontStyle=0;strokeWidth=2;resizeParent=0;resizeLast=1;shadow=0;dashed=0;align=center;" vertex="1" parent="1">
          <mxGeometry x="70" y="-20" width="160" height="120" as="geometry" />
        </mxCell>
        <mxCell id="YqVu-KspWsc6omPKhccF-31" value="# id_daerah&#xa;* provinsi_id&#xa;* kota_id&#xa;* nama" style="align=left;strokeColor=none;fillColor=none;spacingLeft=4;fontSize=12;verticalAlign=top;resizable=0;rotatable=0;part=1;" vertex="1" parent="YqVu-KspWsc6omPKhccF-30">
          <mxGeometry y="30" width="160" height="90" as="geometry" />
        </mxCell>
        <mxCell id="YqVu-KspWsc6omPKhccF-36" style="edgeStyle=orthogonalEdgeStyle;rounded=0;orthogonalLoop=1;jettySize=auto;html=1;startArrow=ERmandOne;startFill=0;endArrow=ERoneToMany;endFill=0;" edge="1" parent="1" source="YqVu-KspWsc6omPKhccF-29" target="YqVu-KspWsc6omPKhccF-30">
          <mxGeometry relative="1" as="geometry" />
        </mxCell>
        <mxCell id="jG4PBK-Dn9zjZ0DRbs_l-1" value="cabang_retail" style="swimlane;childLayout=stackLayout;horizontal=1;startSize=30;horizontalStack=0;rounded=1;fontSize=14;fontStyle=0;strokeWidth=2;resizeParent=0;resizeLast=1;shadow=0;dashed=0;align=center;" vertex="1" parent="1">
          <mxGeometry x="330" y="10" width="160" height="120" as="geometry" />
        </mxCell>
        <mxCell id="jG4PBK-Dn9zjZ0DRbs_l-2" value="#id_cabang&#xa;* type_id&#xa;* alamat_lengkap&#xa;" style="align=left;strokeColor=none;fillColor=none;spacingLeft=4;fontSize=12;verticalAlign=top;resizable=0;rotatable=0;part=1;" vertex="1" parent="jG4PBK-Dn9zjZ0DRbs_l-1">
          <mxGeometry y="30" width="160" height="90" as="geometry" />
        </mxCell>
      </root>
    </mxGraphModel>
  </diagram>
  <diagram id="hk7jvJ2VR85nPx0fre4_" name="Page-4">
    <mxGraphModel dx="868" dy="1594" grid="1" gridSize="10" guides="1" tooltips="1" connect="1" arrows="1" fold="1" page="1" pageScale="1" pageWidth="827" pageHeight="1169" math="0" shadow="0">
      <root>
        <mxCell id="0" />
        <mxCell id="1" parent="0" />
        <mxCell id="quaCYb_dNf8DgL-jnzdd-1" value="wijaya_retail" style="swimlane;childLayout=stackLayout;horizontal=1;startSize=30;horizontalStack=0;rounded=1;fontSize=14;fontStyle=0;strokeWidth=2;resizeParent=0;resizeLast=1;shadow=0;dashed=0;align=center;" vertex="1" parent="1">
          <mxGeometry x="280" y="-830" width="160" height="120" as="geometry" />
        </mxCell>
        <mxCell id="quaCYb_dNf8DgL-jnzdd-2" value="* id_retail&#xa;* nama" style="align=left;strokeColor=none;fillColor=none;spacingLeft=4;fontSize=12;verticalAlign=top;resizable=0;rotatable=0;part=1;" vertex="1" parent="quaCYb_dNf8DgL-jnzdd-1">
          <mxGeometry y="30" width="160" height="90" as="geometry" />
        </mxCell>
        <mxCell id="quaCYb_dNf8DgL-jnzdd-4" value="produk" style="swimlane;childLayout=stackLayout;horizontal=1;startSize=30;horizontalStack=0;rounded=1;fontSize=14;fontStyle=0;strokeWidth=2;resizeParent=0;resizeLast=1;shadow=0;dashed=0;align=center;" vertex="1" parent="1">
          <mxGeometry x="280" y="-640" width="160" height="120" as="geometry" />
        </mxCell>
        <mxCell id="quaCYb_dNf8DgL-jnzdd-5" value="* id_produk&#xa;* nama&#xa;* kategori_id" style="align=left;strokeColor=none;fillColor=none;spacingLeft=4;fontSize=12;verticalAlign=top;resizable=0;rotatable=0;part=1;" vertex="1" parent="quaCYb_dNf8DgL-jnzdd-4">
          <mxGeometry y="30" width="160" height="90" as="geometry" />
        </mxCell>
        <mxCell id="quaCYb_dNf8DgL-jnzdd-6" value="kategori" style="swimlane;childLayout=stackLayout;horizontal=1;startSize=30;horizontalStack=0;rounded=1;fontSize=14;fontStyle=0;strokeWidth=2;resizeParent=0;resizeLast=1;shadow=0;dashed=0;align=center;" vertex="1" parent="1">
          <mxGeometry x="30" y="-640" width="160" height="120" as="geometry" />
        </mxCell>
        <mxCell id="quaCYb_dNf8DgL-jnzdd-7" value="* id_kategori&#xa;* nama&#xa;" style="align=left;strokeColor=none;fillColor=none;spacingLeft=4;fontSize=12;verticalAlign=top;resizable=0;rotatable=0;part=1;" vertex="1" parent="quaCYb_dNf8DgL-jnzdd-6">
          <mxGeometry y="30" width="160" height="90" as="geometry" />
        </mxCell>
      </root>
    </mxGraphModel>
  </diagram>
</mxfile>
